<svg width="236" height="82" viewBox="0 0 236 82" fill="none" xmlns="http://www.w3.org/2000/svg">
<g filter="url(#filter0_d_68_118)">
<path d="M65 49.6643V35.5944H69.2835V37.1888C69.5822 36.9464 69.9554 36.6946 70.4034 36.4336C70.8513 36.1538 71.3273 35.9021 71.8312 35.6783C72.3352 35.4545 72.8205 35.3147 73.2871 35.2587V39.3427C72.8391 39.3986 72.3632 39.5105 71.8592 39.6783C71.3553 39.8275 70.8793 40.0047 70.4314 40.2098C69.9834 40.3963 69.6008 40.5734 69.2835 40.7413V49.6643H65Z" fill="white"/>
<path d="M78.9256 50C77.3951 50 76.2472 49.627 75.482 48.8811C74.7354 48.1352 74.3621 46.9977 74.3621 45.4685C74.3621 44.3869 74.5581 43.5571 74.95 42.979C75.3607 42.3823 75.9486 41.9534 76.7138 41.6923C77.4791 41.4312 78.403 41.2727 79.4855 41.2168L82.6212 40.965V40.2378C82.6212 39.6783 82.4625 39.2867 82.1452 39.0629C81.8466 38.8205 81.3987 38.6993 80.8014 38.6993C80.2601 38.6993 79.6442 38.7179 78.9536 38.7552C78.263 38.7925 77.5817 38.8392 76.9098 38.8951C76.2379 38.951 75.6593 39.007 75.174 39.0629L75.034 36.0979C75.538 35.9674 76.1352 35.8462 76.8258 35.7343C77.5351 35.6037 78.2723 35.5012 79.0376 35.4266C79.8028 35.3333 80.5214 35.2867 81.1933 35.2867C82.4065 35.2867 83.4331 35.4359 84.273 35.7343C85.1316 36.014 85.7848 36.4988 86.2328 37.1888C86.6807 37.8601 86.9047 38.8019 86.9047 40.014V46.1678C86.9607 46.3916 87.0913 46.5688 87.2967 46.6993C87.5206 46.8112 87.7633 46.8951 88.0246 46.9511L87.9406 49.8042C87.5113 49.8415 87.054 49.8695 86.5687 49.8881C86.1021 49.9068 85.7288 49.8974 85.4489 49.8601C84.9636 49.8042 84.5436 49.6923 84.189 49.5245C83.853 49.338 83.6011 49.1515 83.4331 48.965C83.1345 49.0956 82.7425 49.2448 82.2572 49.4126C81.7719 49.5804 81.24 49.7203 80.6614 49.8322C80.1015 49.9441 79.5229 50 78.9256 50ZM79.9895 46.8951C80.3068 46.8951 80.6241 46.8578 80.9414 46.7832C81.2773 46.7086 81.5946 46.6247 81.8933 46.5315C82.1919 46.4382 82.4345 46.3543 82.6212 46.2797V43.5105L80.1575 43.7343C79.6349 43.7902 79.2522 43.958 79.0096 44.2378C78.7669 44.4988 78.6456 44.8718 78.6456 45.3566C78.6456 45.8228 78.7576 46.1958 78.9816 46.4755C79.2056 46.7552 79.5415 46.8951 79.9895 46.8951Z" fill="white"/>
<path d="M89.88 49.6643V30H94.1635V40.7133L95.6194 40.6853L98.1671 35.5944H102.563L99.343 42.2517L102.759 49.6643H98.3351L95.6754 44.4056L94.1635 44.4615V49.6643H89.88Z" fill="white"/>
<path d="M104.371 49.6643V30H108.654V36.042C109.102 35.8741 109.681 35.7063 110.39 35.5385C111.099 35.3706 111.724 35.2867 112.266 35.2867C113.591 35.2867 114.617 35.5198 115.345 35.986C116.092 36.4336 116.615 37.1702 116.913 38.1958C117.23 39.2214 117.389 40.5921 117.389 42.3077V49.6643H113.106V42.6713C113.106 41.7949 113.05 41.0862 112.938 40.5455C112.844 40.0047 112.658 39.6131 112.378 39.3706C112.098 39.1282 111.687 39.007 111.146 39.007C110.698 39.007 110.241 39.0629 109.774 39.1748C109.307 39.2867 108.934 39.3893 108.654 39.4825V49.6643H104.371Z" fill="white"/>
<path d="M123.901 50C122.371 50 121.223 49.627 120.457 48.8811C119.711 48.1352 119.338 46.9977 119.338 45.4685C119.338 44.3869 119.534 43.5571 119.925 42.979C120.336 42.3823 120.924 41.9534 121.689 41.6923C122.455 41.4312 123.378 41.2727 124.461 41.2168L127.597 40.965V40.2378C127.597 39.6783 127.438 39.2867 127.121 39.0629C126.822 38.8205 126.374 38.6993 125.777 38.6993C125.236 38.6993 124.62 38.7179 123.929 38.7552C123.238 38.7925 122.557 38.8392 121.885 38.8951C121.213 38.951 120.635 39.007 120.149 39.0629L120.009 36.0979C120.513 35.9674 121.111 35.8462 121.801 35.7343C122.511 35.6037 123.248 35.5012 124.013 35.4266C124.778 35.3333 125.497 35.2867 126.169 35.2867C127.382 35.2867 128.409 35.4359 129.248 35.7343C130.107 36.014 130.76 36.4988 131.208 37.1888C131.656 37.8601 131.88 38.8019 131.88 40.014V46.1678C131.936 46.3916 132.067 46.5688 132.272 46.6993C132.496 46.8112 132.739 46.8951 133 46.9511L132.916 49.8042C132.487 49.8415 132.029 49.8695 131.544 49.8881C131.078 49.9068 130.704 49.8974 130.424 49.8601C129.939 49.8042 129.519 49.6923 129.164 49.5245C128.828 49.338 128.576 49.1515 128.409 48.965C128.11 49.0956 127.718 49.2448 127.233 49.4126C126.747 49.5804 126.215 49.7203 125.637 49.8322C125.077 49.9441 124.498 50 123.901 50ZM124.965 46.8951C125.282 46.8951 125.599 46.8578 125.917 46.7832C126.253 46.7086 126.57 46.6247 126.869 46.5315C127.167 46.4382 127.41 46.3543 127.597 46.2797V43.5105L125.133 43.7343C124.61 43.7902 124.228 43.958 123.985 44.2378C123.742 44.4988 123.621 44.8718 123.621 45.3566C123.621 45.8228 123.733 46.1958 123.957 46.4755C124.181 46.7552 124.517 46.8951 124.965 46.8951Z" fill="white"/>
</g>
<g clip-path="url(#clip0_68_118)">
<g filter="url(#filter1_d_68_118)">
<path d="M140.409 49.9781C138.749 49.9781 137.452 49.7329 136.519 49.2426C135.586 48.7334 134.933 47.9225 134.56 46.8098C134.187 45.6971 134 44.2355 134 42.425C134 40.5957 134.215 39.153 134.644 38.0969C135.073 37.0219 135.754 36.2581 136.687 35.8055C137.639 35.3341 138.879 35.0983 140.409 35.0983C140.839 35.0983 141.324 35.1266 141.865 35.1832C142.406 35.2398 142.947 35.3152 143.488 35.4095C144.029 35.5038 144.496 35.5981 144.888 35.6924L144.748 39.1436C144.374 39.1059 143.955 39.0681 143.488 39.0304C143.022 38.9927 142.574 38.9644 142.145 38.9456C141.715 38.9078 141.37 38.889 141.109 38.889C140.4 38.889 139.84 39.0021 139.43 39.2284C139.019 39.4548 138.73 39.8319 138.562 40.36C138.394 40.8692 138.31 41.5575 138.31 42.425C138.31 43.3303 138.385 44.0658 138.534 44.6316C138.702 45.1785 138.982 45.5745 139.374 45.8197C139.784 46.046 140.363 46.1591 141.109 46.1591C141.37 46.1591 141.715 46.1497 142.145 46.1308C142.592 46.0931 143.05 46.0554 143.516 46.0177C144.001 45.98 144.43 45.9517 144.804 45.9328L144.916 49.3557C144.542 49.45 144.085 49.5443 143.544 49.6386C143.022 49.7141 142.481 49.7895 141.921 49.8649C141.361 49.9404 140.857 49.9781 140.409 49.9781Z" fill="white"/>
<path d="M147.075 49.6386V35.4095H151.358V49.6386H147.075ZM147.075 33.4293V29.9781H151.358V33.4293H147.075Z" fill="white"/>
<path d="M154.1 49.6386V35.4095H158.354V36.2864C158.783 36.0224 159.352 35.7584 160.061 35.4944C160.77 35.2303 161.452 35.0983 162.105 35.0983C162.944 35.0983 163.625 35.2209 164.148 35.4661C164.689 35.6924 165.127 36.0224 165.463 36.4562C165.799 36.2487 166.21 36.0413 166.695 35.8338C167.199 35.6264 167.74 35.4566 168.318 35.3246C168.896 35.1738 169.466 35.0983 170.025 35.0983C171.425 35.0983 172.498 35.3529 173.244 35.8621C173.99 36.3524 174.504 37.1351 174.783 38.2101C175.082 39.2662 175.231 40.624 175.231 42.2836V49.6386H170.977V42.7079C170.977 41.8216 170.93 41.0955 170.837 40.5297C170.744 39.9639 170.557 39.549 170.277 39.285C169.997 39.0021 169.596 38.8607 169.074 38.8607C168.607 38.8607 168.141 38.9267 167.674 39.0587C167.208 39.1907 166.844 39.3227 166.583 39.4548C166.695 39.7942 166.769 40.2657 166.807 40.8692C166.844 41.4538 166.863 42.0573 166.863 42.6796V49.6386H162.58V42.7645C162.58 41.8404 162.534 41.0955 162.44 40.5297C162.347 39.9639 162.161 39.549 161.881 39.285C161.619 39.0021 161.228 38.8607 160.705 38.8607C160.257 38.8607 159.81 38.9267 159.362 39.0587C158.933 39.1719 158.606 39.2944 158.382 39.4265V49.6386H154.1Z" fill="white"/>
<path d="M181.742 49.9781C180.212 49.9781 179.065 49.6009 178.3 48.8465C177.553 48.0922 177.18 46.9418 177.18 45.3953C177.18 44.3015 177.376 43.4623 177.768 42.8777C178.178 42.2742 178.766 41.8404 179.531 41.5764C180.296 41.3124 181.22 41.1521 182.302 41.0955L185.437 40.8409V40.1054C185.437 39.5396 185.278 39.1436 184.961 38.9173C184.662 38.6721 184.215 38.5495 183.617 38.5495C183.076 38.5495 182.461 38.5684 181.77 38.6061C181.08 38.6438 180.399 38.691 179.727 38.7475C179.055 38.8041 178.477 38.8607 177.992 38.9173L177.852 35.9187C178.356 35.7867 178.953 35.6641 179.643 35.5509C180.352 35.4189 181.089 35.3152 181.854 35.2398C182.619 35.1455 183.338 35.0983 184.009 35.0983C185.222 35.0983 186.248 35.2492 187.088 35.5509C187.946 35.8338 188.599 36.3242 189.047 37.0219C189.495 37.7009 189.719 38.6532 189.719 39.8791V46.1026C189.775 46.3289 189.906 46.508 190.111 46.64C190.335 46.7532 190.577 46.8381 190.839 46.8946L190.755 49.7801C190.325 49.8178 189.868 49.8461 189.383 49.8649C188.917 49.8838 188.543 49.8744 188.264 49.8366C187.778 49.7801 187.359 49.6669 187.004 49.4972C186.668 49.3086 186.416 49.12 186.248 48.9314C185.95 49.0634 185.558 49.2143 185.073 49.384C184.588 49.5538 184.056 49.6952 183.478 49.8084C182.918 49.9215 182.339 49.9781 181.742 49.9781ZM182.806 46.8381C183.123 46.8381 183.44 46.8003 183.757 46.7249C184.093 46.6495 184.41 46.5646 184.709 46.4703C185.008 46.376 185.25 46.2911 185.437 46.2157V43.4151L182.974 43.6415C182.451 43.698 182.069 43.8678 181.826 44.1506C181.584 44.4147 181.462 44.7919 181.462 45.2822C181.462 45.7537 181.574 46.1308 181.798 46.4137C182.022 46.6966 182.358 46.8381 182.806 46.8381Z" fill="white"/>
<path d="M192.693 49.6386V35.4095H196.948V36.2864C197.246 36.0978 197.601 35.9187 198.011 35.749C198.422 35.5604 198.851 35.4095 199.299 35.2963C199.765 35.1643 200.204 35.0983 200.614 35.0983C201.939 35.0983 202.965 35.3341 203.693 35.8055C204.439 36.2581 204.962 37.0219 205.26 38.0969C205.577 39.153 205.736 40.558 205.736 42.3119V49.6386H201.454V42.5665C201.454 41.6801 201.398 40.9635 201.286 40.4166C201.174 39.8696 200.978 39.4736 200.698 39.2284C200.418 38.9833 200.017 38.8607 199.495 38.8607C199.196 38.8607 198.888 38.889 198.571 38.9456C198.254 39.0021 197.955 39.0776 197.675 39.1719C197.395 39.2662 197.162 39.3605 196.976 39.4548V49.6386H192.693Z" fill="white"/>
<path d="M214.597 49.9781C213.011 49.9781 211.714 49.7235 210.707 49.2143C209.718 48.6862 208.99 47.8659 208.524 46.7532C208.076 45.6405 207.852 44.2072 207.852 42.4533C207.852 40.7183 208.085 39.3133 208.551 38.2383C209.037 37.1634 209.783 36.3713 210.791 35.8621C211.798 35.3529 213.067 35.0983 214.597 35.0983C216.164 35.0983 217.443 35.3529 218.431 35.8621C219.439 36.3713 220.176 37.1634 220.643 38.2383C221.128 39.3133 221.37 40.7183 221.37 42.4533C221.37 44.2072 221.137 45.6405 220.671 46.7532C220.223 47.8659 219.495 48.6862 218.487 49.2143C217.498 49.7235 216.202 49.9781 214.597 49.9781ZM214.597 46.4137C215.287 46.4137 215.801 46.2817 216.136 46.0177C216.491 45.7537 216.724 45.3293 216.836 44.7447C216.967 44.1601 217.032 43.3963 217.032 42.4533C217.032 41.4915 216.957 40.7372 216.808 40.1903C216.659 39.6433 216.407 39.2473 216.052 39.0021C215.717 38.757 215.231 38.6344 214.597 38.6344C213.981 38.6344 213.496 38.757 213.142 39.0021C212.787 39.2473 212.535 39.6528 212.386 40.2185C212.237 40.7655 212.162 41.5104 212.162 42.4533C212.162 43.3963 212.227 44.1601 212.358 44.7447C212.489 45.3293 212.722 45.7537 213.058 46.0177C213.412 46.2817 213.925 46.4137 214.597 46.4137Z" fill="white"/>
<path d="M223.55 49.6386V45.1407H228V49.6386H223.55Z" fill="white"/>
</g>
</g>
<g clip-path="url(#clip1_68_118)" filter="url(#filter2_d_68_118)">
<g filter="url(#filter3_d_68_118)">
<path d="M57.3685 24.0001C57.6979 24.0001 57.9482 24.2969 57.8885 24.6209C57.7131 25.5753 57.5164 26.5023 57.2958 27.4019C57.0074 28.5814 56.6785 29.7154 56.3193 30.8038C55.9297 31.9883 55.4946 33.1223 55.0291 34.2056C54.8875 34.5296 54.7458 34.8485 54.6041 35.1624C54.2146 36.0078 53.8047 36.8228 53.3747 37.6074C52.7169 38.8072 52.0137 39.9411 51.275 41.0093C51.2497 41.0447 51.2294 41.0751 51.2041 41.1106C50.9389 41.4956 50.6681 41.8695 50.3919 42.2345C50.226 42.4536 49.9194 42.505 49.6871 42.3582C49.0726 41.9701 48.4367 41.585 47.8041 41.2169C47.6878 41.146 47.5663 41.0801 47.45 41.0093C46.3268 40.3614 45.2491 39.769 44.4041 39.3236C44.2871 39.2606 44.1742 39.2007 44.0664 39.1437C43.7768 38.9909 43.6939 38.6165 43.8877 38.3525C44.0615 38.1156 44.233 37.8748 44.4011 37.6272C44.4031 37.6242 44.4052 37.6217 44.4077 37.619C44.4154 37.6103 44.4178 37.5973 44.4244 37.5876C45.144 36.5338 45.8084 35.4098 46.4026 34.2005C46.826 33.3412 47.2133 32.4392 47.5567 31.4947C47.6806 31.1539 47.4247 30.7987 47.0621 30.7987H24.5303C24.2369 30.7987 23.9991 30.5608 23.9991 30.2674V24.5313C23.9991 24.2379 24.2369 24.0001 24.5303 24.0001H57.3685Z" fill="white"/>
</g>
<g filter="url(#filter4_d_68_118)">
<path d="M57.6996 57.2752C57.8477 57.6206 57.5911 57.9999 57.2153 57.9999H51.4782C51.301 57.9999 51.1358 57.9114 51.0357 57.7652C50.2509 56.6181 49.4137 55.5677 48.5364 54.6016C48.2934 54.3336 48.0453 54.0656 47.7922 53.8127C46.8554 52.8519 45.8884 51.9871 44.9162 51.2084C44.744 51.0667 44.5668 50.9302 44.3896 50.7987C43.8985 50.4195 43.4022 50.0655 42.9111 49.7267C42.263 49.2867 41.62 48.8771 40.9871 48.5029C40.5769 48.2601 40.1719 48.0275 39.7668 47.8151C39.0174 47.4105 38.2833 47.0464 37.5845 46.7278C36.9567 46.4396 36.3491 46.1817 35.7769 45.9592C35.2098 45.7367 34.6731 45.5395 34.182 45.3726C32.8134 44.9035 31.7647 44.6387 31.2128 44.5133C30.9624 44.4565 30.7795 44.2352 30.7795 43.9784V38.1859C30.7795 37.8757 31.0432 37.6345 31.3508 37.6751C31.9268 37.7511 32.9117 37.9061 34.182 38.2017C35.1643 38.4293 36.3188 38.7428 37.5845 39.1676C38.6529 39.5267 39.7972 39.9616 40.9871 40.4976C41.2555 40.619 41.5238 40.7404 41.7922 40.8718C41.8884 40.9173 41.9795 40.9628 42.0757 41.0084C42.8352 41.3826 43.6099 41.7922 44.3896 42.2473C45.4732 42.8794 46.5618 43.5976 47.6402 44.4067L47.7922 44.523C47.9339 44.6292 48.0757 44.7404 48.2174 44.8517C49.2301 45.6507 50.2327 46.5357 51.1947 47.5167C51.2858 47.6128 51.382 47.7089 51.4731 47.805C52.4554 48.8316 53.4023 49.9593 54.2934 51.2033C54.3947 51.3449 54.4959 51.4915 54.5972 51.6332C55.2352 52.5585 55.8428 53.5447 56.4098 54.5966C56.8657 55.4507 57.299 56.3402 57.6996 57.2752Z" fill="white"/>
</g>
<g filter="url(#filter5_d_68_118)">
<path d="M40.4326 51.2083C40.5383 51.2647 40.5365 51.4118 40.4363 51.4774C39.4843 52.0999 38.5372 52.6619 37.6034 53.1756C36.6419 53.7015 35.7005 54.1768 34.7844 54.5966C34.5921 54.6876 34.3948 54.7736 34.2024 54.8596C33.003 55.3956 31.8592 55.8406 30.8014 56.2148C29.526 56.665 28.3771 57.0088 27.4004 57.2667C26.1442 57.6025 25.174 57.7989 24.5971 57.9026C24.2811 57.9593 23.9993 57.715 23.9993 57.3939V51.6309C23.9993 51.3813 24.1721 51.1645 24.4139 51.102C24.9612 50.9606 26.0192 50.6634 27.4004 50.1615C28.3873 49.8025 29.5463 49.3372 30.8014 48.7455C31.4087 48.4624 32.0363 48.1488 32.679 47.805C32.7468 47.7686 32.8135 47.7324 32.88 47.6961C33.0187 47.6206 33.1838 47.6114 33.3295 47.6722C33.4281 47.7134 33.5321 47.7576 33.6407 47.805C33.8178 47.8808 34.005 47.9617 34.2024 48.0477C35.1742 48.4674 36.3939 49.0187 37.6034 49.6305C38.6005 50.1312 39.5924 50.6723 40.4326 51.2083Z" fill="white"/>
</g>
</g>
<defs>
<filter id="filter0_d_68_118" x="41" y="6" width="116" height="68" filterUnits="userSpaceOnUse" color-interpolation-filters="sRGB">
<feFlood flood-opacity="0" result="BackgroundImageFix"/>
<feColorMatrix in="SourceAlpha" type="matrix" values="0 0 0 0 0 0 0 0 0 0 0 0 0 0 0 0 0 0 127 0" result="hardAlpha"/>
<feOffset/>
<feGaussianBlur stdDeviation="12"/>
<feComposite in2="hardAlpha" operator="out"/>
<feColorMatrix type="matrix" values="0 0 0 0 1 0 0 0 0 1 0 0 0 0 1 0 0 0 0.32 0"/>
<feBlend mode="normal" in2="BackgroundImageFix" result="effect1_dropShadow_68_118"/>
<feBlend mode="normal" in="SourceGraphic" in2="effect1_dropShadow_68_118" result="shape"/>
</filter>
<filter id="filter1_d_68_118" x="110" y="5.97809" width="142" height="68" filterUnits="userSpaceOnUse" color-interpolation-filters="sRGB">
<feFlood flood-opacity="0" result="BackgroundImageFix"/>
<feColorMatrix in="SourceAlpha" type="matrix" values="0 0 0 0 0 0 0 0 0 0 0 0 0 0 0 0 0 0 127 0" result="hardAlpha"/>
<feOffset/>
<feGaussianBlur stdDeviation="12"/>
<feComposite in2="hardAlpha" operator="out"/>
<feColorMatrix type="matrix" values="0 0 0 0 1 0 0 0 0 1 0 0 0 0 1 0 0 0 0.32 0"/>
<feBlend mode="normal" in2="BackgroundImageFix" result="effect1_dropShadow_68_118"/>
<feBlend mode="normal" in="SourceGraphic" in2="effect1_dropShadow_68_118" result="shape"/>
</filter>
<filter id="filter2_d_68_118" x="0" y="-7" width="82" height="96" filterUnits="userSpaceOnUse" color-interpolation-filters="sRGB">
<feFlood flood-opacity="0" result="BackgroundImageFix"/>
<feColorMatrix in="SourceAlpha" type="matrix" values="0 0 0 0 0 0 0 0 0 0 0 0 0 0 0 0 0 0 127 0" result="hardAlpha"/>
<feOffset/>
<feGaussianBlur stdDeviation="12"/>
<feComposite in2="hardAlpha" operator="out"/>
<feColorMatrix type="matrix" values="0 0 0 0 1 0 0 0 0 1 0 0 0 0 1 0 0 0 0.32 0"/>
<feBlend mode="normal" in2="BackgroundImageFix" result="effect1_dropShadow_68_118"/>
<feBlend mode="normal" in="SourceGraphic" in2="effect1_dropShadow_68_118" result="shape"/>
</filter>
<filter id="filter3_d_68_118" x="-0.000915527" y="6.10352e-05" width="81.8983" height="66.4413" filterUnits="userSpaceOnUse" color-interpolation-filters="sRGB">
<feFlood flood-opacity="0" result="BackgroundImageFix"/>
<feColorMatrix in="SourceAlpha" type="matrix" values="0 0 0 0 0 0 0 0 0 0 0 0 0 0 0 0 0 0 127 0" result="hardAlpha"/>
<feOffset/>
<feGaussianBlur stdDeviation="12"/>
<feComposite in2="hardAlpha" operator="out"/>
<feColorMatrix type="matrix" values="0 0 0 0 1 0 0 0 0 1 0 0 0 0 1 0 0 0 0.32 0"/>
<feBlend mode="normal" in2="BackgroundImageFix" result="effect1_dropShadow_68_118"/>
<feBlend mode="normal" in="SourceGraphic" in2="effect1_dropShadow_68_118" result="shape"/>
</filter>
<filter id="filter4_d_68_118" x="6.77948" y="13.6707" width="74.9627" height="68.3293" filterUnits="userSpaceOnUse" color-interpolation-filters="sRGB">
<feFlood flood-opacity="0" result="BackgroundImageFix"/>
<feColorMatrix in="SourceAlpha" type="matrix" values="0 0 0 0 0 0 0 0 0 0 0 0 0 0 0 0 0 0 127 0" result="hardAlpha"/>
<feOffset/>
<feGaussianBlur stdDeviation="12"/>
<feComposite in2="hardAlpha" operator="out"/>
<feColorMatrix type="matrix" values="0 0 0 0 1 0 0 0 0 1 0 0 0 0 1 0 0 0 0.32 0"/>
<feBlend mode="normal" in2="BackgroundImageFix" result="effect1_dropShadow_68_118"/>
<feBlend mode="normal" in="SourceGraphic" in2="effect1_dropShadow_68_118" result="shape"/>
</filter>
<filter id="filter5_d_68_118" x="-0.000671387" y="23.6323" width="64.5124" height="58.2785" filterUnits="userSpaceOnUse" color-interpolation-filters="sRGB">
<feFlood flood-opacity="0" result="BackgroundImageFix"/>
<feColorMatrix in="SourceAlpha" type="matrix" values="0 0 0 0 0 0 0 0 0 0 0 0 0 0 0 0 0 0 127 0" result="hardAlpha"/>
<feOffset/>
<feGaussianBlur stdDeviation="12"/>
<feComposite in2="hardAlpha" operator="out"/>
<feColorMatrix type="matrix" values="0 0 0 0 1 0 0 0 0 1 0 0 0 0 1 0 0 0 0.32 0"/>
<feBlend mode="normal" in2="BackgroundImageFix" result="effect1_dropShadow_68_118"/>
<feBlend mode="normal" in="SourceGraphic" in2="effect1_dropShadow_68_118" result="shape"/>
</filter>
<clipPath id="clip0_68_118">
<rect width="96" height="45" fill="white" transform="translate(133 17)"/>
</clipPath>
<clipPath id="clip1_68_118">
<rect width="34" height="48" fill="white" transform="translate(24 17)"/>
</clipPath>
</defs>
</svg>
